<svg width="23" height="23" viewBox="0 0 23 23" fill="none" xmlns="http://www.w3.org/2000/svg">
<path d="M3.51081 19.7718C2.41245 18.711 1.53635 17.442 0.933648 16.039C0.330945 14.6359 0.0137031 13.1269 0.000434203 11.5999C-0.0128347 10.073 0.278135 8.55865 0.856365 7.14534C1.4346 5.73203 2.28851 4.44804 3.36827 3.36827C4.44804 2.28851 5.73203 1.4346 7.14534 0.856365C8.55865 0.278135 10.073 -0.0128347 11.5999 0.000434203C13.1269 0.0137031 14.6359 0.330945 16.039 0.933648C17.442 1.53635 18.711 2.41245 19.7718 3.51081C21.8666 5.67974 23.0258 8.58467 22.9996 11.5999C22.9734 14.6152 21.7639 17.4995 19.6317 19.6317C17.4995 21.7639 14.6152 22.9734 11.5999 22.9996C8.58467 23.0258 5.67974 21.8666 3.51081 19.7718ZM18.1503 18.1503C19.8766 16.424 20.8464 14.0827 20.8464 11.6413C20.8464 9.19997 19.8766 6.85861 18.1503 5.13231C16.424 3.40602 14.0827 2.4362 11.6413 2.4362C9.19997 2.4362 6.85861 3.40602 5.13231 5.13231C3.40602 6.85861 2.4362 9.19997 2.4362 11.6413C2.4362 14.0827 3.40602 16.424 5.13231 18.1503C6.85861 19.8766 9.19997 20.8464 11.6413 20.8464C14.0827 20.8464 16.424 19.8766 18.1503 18.1503ZM7.84631 10.8248L10.4913 13.4813L15.4363 8.53631L17.0463 10.1693L10.4913 16.7013L6.23631 12.4463L7.84631 10.8133V10.8248Z" fill="#000000"/>
</svg>
