<svg width="290" height="306" viewBox="0 0 290 306" fill="none" xmlns="http://www.w3.org/2000/svg">
<path d="M200.164 0.83671C189.764 3.22733 180.441 11.5348 176.556 21.8144C175.421 24.8625 175.182 26.5359 175.182 32.8711C175.241 39.5051 175.421 40.7601 176.855 44.4059C179.545 51.2789 183.668 56.2394 190.123 60.4828C202.196 68.3719 219.348 66.818 229.748 56.8371C236.441 50.4422 239.489 43.6289 239.908 34.3055C240.326 25.0418 237.816 17.7504 231.959 10.9371C229.09 7.59023 222.695 3.40663 217.914 1.79296C213.013 0.119522 205.244 -0.298837 200.164 0.83671Z" fill="#67CE67"/>
<path d="M91.45 53.7293C88.402 54.5062 83.4414 57.4945 81.4094 59.8254C80.3934 61.0207 73.5203 73.0336 66.1094 86.4211C55.8297 105.187 52.5426 111.642 52.0047 114.332C49.6141 125.687 57.2641 135.907 69.4563 137.82C72.5043 138.298 78.4211 136.804 81.5289 134.831C85.4734 132.381 87.5652 129.213 97.7852 110.626L107.646 92.6367H126.293H144.88L124.261 128.616C112.906 148.458 100.116 170.75 95.8727 178.221L88.1031 191.788L50.9289 191.967L13.8145 192.146L10.8262 193.641C7.00117 195.493 3.41523 199.139 1.50273 202.904C0.307422 205.474 0.0683594 206.729 0.0683594 211.57C0.0683594 216.531 0.307422 217.607 1.68203 220.296C3.77383 224.3 8.55508 228.544 12.4996 229.918C15.3684 230.934 18.5957 230.994 59.2363 230.994C100.176 230.994 103.045 230.934 106.033 229.859C111.531 228.006 114.759 224.241 122.887 210.375C126.831 203.621 130.357 198.123 130.656 198.123C130.955 198.123 139.083 204.279 148.646 211.809C160.898 221.491 165.918 225.795 165.739 226.452C165.619 226.99 160.539 239.66 154.563 254.602C143.805 281.317 143.625 281.855 143.566 286.277C143.506 293.927 147.152 299.904 154.084 303.669C157.491 305.462 158.328 305.641 162.93 305.701C166.874 305.701 168.607 305.402 170.759 304.446C174.285 302.832 178.11 299.366 179.963 296.198C180.74 294.824 187.613 278.149 195.263 259.084C207.993 227.408 209.188 224.061 209.427 220.236C209.726 214.977 208.053 210.076 204.706 206.49C203.451 205.175 193.589 197.047 182.712 188.501C171.835 180.014 162.989 172.782 162.93 172.484C162.93 172.065 170.4 159.096 184.923 134.532L189.944 125.986L199.387 140.27C209.666 155.988 211.758 158.2 217.795 159.933C222.157 161.248 228.074 160.829 231.66 158.977C233.154 158.259 245.107 151.685 258.256 144.394C283.537 130.409 285.808 128.855 288.497 123.416C289.693 120.846 289.932 119.591 289.932 114.75C289.932 109.969 289.693 108.654 288.557 106.502C285.389 100.526 279.353 96.2226 272.898 95.3262C267.759 94.609 264.053 96.1031 246.721 105.725C237.816 110.686 230.345 114.75 230.046 114.75C229.807 114.69 225.086 107.757 219.528 99.2707L209.547 83.8512L204.586 83.4926C186.716 82.118 170.221 71.4797 162.631 56.4187L161.017 53.1914L127.13 53.2512C108.543 53.3109 92.466 53.4902 91.45 53.7293Z" fill="#67CE67"/>
</svg>
