<?xml version="1.0" standalone="no"?>
<!DOCTYPE svg PUBLIC "-//W3C//DTD SVG 20010904//EN"
 "http://www.w3.org/TR/2001/REC-SVG-20010904/DTD/svg10.dtd">
<svg version="1.0" xmlns="http://www.w3.org/2000/svg"
 width="512.000000pt" height="512.000000pt" viewBox="0 0 512.000000 512.000000"
 preserveAspectRatio="xMidYMid meet">

<g transform="translate(0.000000,512.000000) scale(0.100000,-0.100000)"
fill="#000000" stroke="none">
<path d="M2665 4314 c-423 -123 -736 -218 -775 -237 -213 -104 -336 -378 -275
-612 22 -83 40 -115 259 -468 108 -174 198 -322 201 -329 3 -8 -114 -87 -342
-228 l-347 -215 44 -7 c25 -3 71 -7 103 -7 188 -3 531 -54 1077 -160 490 -96
666 -123 948 -144 51 -4 65 5 43 29 -5 5 -54 82 -109 171 l-100 162 69 -58
c212 -179 506 -212 752 -84 92 47 219 172 270 263 60 110 82 197 82 330 0 197
-58 335 -199 476 -141 141 -301 202 -505 191 -177 -8 -324 -75 -446 -202 -72
-75 -118 -149 -152 -247 -37 -102 -43 -279 -15 -388 11 -41 19 -76 18 -76 -1
-2 -299 478 -517 832 l-57 91 132 38 c619 178 788 229 834 252 99 50 184 154
217 265 84 289 -129 569 -430 567 -61 0 -165 -28 -780 -205z" fill="#3a82f7"/>
<path d="M970 1909 c-300 -25 -803 -124 -893 -177 -96 -56 -100 -188 -8 -249
46 -31 94 -29 232 7 391 103 842 148 1214 121 290 -21 452 -45 970 -147 529
-103 724 -133 1015 -155 193 -14 605 -6 790 16 283 33 691 116 753 152 118 70
91 242 -44 272 -25 6 -71 -1 -174 -25 -165 -39 -442 -87 -610 -106 -74 -8
-235 -13 -420 -13 -413 1 -586 22 -1265 155 -529 103 -700 129 -975 150 -161
11 -433 11 -585 -1z" fill="#3a82f7"/>
<path d="M970 1209 c-300 -25 -803 -124 -893 -177 -96 -56 -100 -188 -8 -249
46 -31 94 -29 232 7 391 103 842 148 1214 121 290 -21 452 -45 970 -147 529
-103 724 -133 1015 -155 193 -14 605 -6 790 16 283 33 691 116 753 152 118 70
91 242 -44 272 -25 6 -72 -1 -174 -25 -538 -127 -1049 -155 -1580 -88 -177 22
-320 47 -715 124 -516 101 -691 128 -969 150 -155 12 -438 11 -591 -1z" fill="#3a82f7"/>
</g>
</svg>
